<svg width="6303" height="9793" viewBox="0 0 6303 9793" fill="none" xmlns="http://www.w3.org/2000/svg">
<path d="M3820.63 4733.27C4845.59 4279.46 5574.96 2794.02 5639 1071.8H6056.31C6192.53 1071.8 6303 961.336 6303 825.116V246.686C6303 110.466 6192.53 0 6056.31 0H246.693C110.469 0 0 110.466 0 246.686V825.116C0 961.336 110.469 1071.8 246.693 1071.8H663.998C728.089 2794.02 1457.41 4279.41 2482.37 4733.27C2549.77 4763.12 2593.28 4827.16 2593.28 4896.52C2593.28 4965.84 2549.77 5029.88 2482.37 5059.73C1457.41 5513.59 728.04 6998.98 663.998 8721.2H246.693C110.469 8721.2 0 8831.66 0 8967.88V9546.31C0 9682.53 110.469 9793 246.693 9793H6056.31C6192.53 9793 6303 9682.53 6303 9546.31V8967.88C6303 8831.66 6192.53 8721.2 6056.31 8721.2H5639C5574.91 6999.03 4845.59 5513.59 3820.63 5059.73C3753.23 5029.88 3709.72 4965.84 3709.72 4896.52C3709.72 4827.16 3753.23 4763.12 3820.63 4733.27ZM2615.34 4047.33C2451.68 3951.12 2265.73 3761.57 2098.32 3562.45C2397.61 3634.72 2762.61 3694.72 3149.53 3694.72C3549.91 3694.72 3927.55 3630.43 4233.2 3554.85C4085.73 3727.92 3901.64 3911.41 3686.68 4061.69C3599.49 4122.62 3412.6 4193.81 3172.81 4193.81C3032.15 4193.81 2821.28 4168.41 2615.34 4047.33ZM1379.11 8536.04C1379.56 8510.43 1380.2 8482.75 1381.08 8452.95C1384.59 8331.83 1416.66 8095.65 1445.03 7934.91C1446.56 7926.08 1453.02 7918.88 1461.9 7916.11L3009.01 7429.94C3055.14 7415.49 3103 7408.14 3151.35 7408.14C3199.7 7408.14 3247.61 7415.49 3293.69 7429.94L4835.97 7914.58C4845.05 7917.44 4851.56 7924.89 4852.94 7934.12C4864.24 8009.21 4880.92 8125.55 4896.46 8253.33C4908.1 8349.19 4914.51 8449.35 4918.02 8536.08L1379.11 8536.04Z" fill="black"/>
</svg>
