<svg width="10913" height="10629" viewBox="0 0 10913 10629" fill="none" xmlns="http://www.w3.org/2000/svg">
<path d="M7412.92 6948.5C7299.11 6948.5 7223.23 6910.56 7147.35 6834.69L4074.32 3761.66C3998.44 3685.78 3960.5 3609.9 3960.5 3496.09C3960.5 3382.27 3998.44 3306.39 4074.32 3230.52L4339.89 2964.94C4833.09 2471.74 5553.93 2395.86 6123.01 2737.31L8437.27 423.055C8740.78 119.545 9196.04 -32.2093 9613.36 5.72932C10068.6 43.668 10448 271.3 10675.6 650.686C11055 1219.77 10979.2 2016.48 10448 2547.62L8171.7 4823.94C8285.51 5051.57 8361.39 5279.2 8361.39 5544.77C8361.39 5924.16 8209.63 6303.55 7944.06 6569.12L7678.49 6834.69C7602.62 6910.56 7488.8 6948.5 7412.92 6948.5Z" fill="black"/>
<path d="M6616.21 7365.83L3543.18 4292.8C3505.24 4254.86 3467.3 4216.92 3429.36 4141.05C2556.77 4861.88 1418.61 5355.08 318.393 5506.84C166.638 5544.78 52.8222 5620.65 14.8835 5772.41C-23.0551 5924.16 14.8835 6075.92 90.7608 6151.8L4453.71 10514.7C4529.58 10590.6 4605.46 10628.6 4719.28 10628.6H4757.22C4871.03 10628.6 4984.85 10552.7 5022.79 10438.9L6881.78 7555.53C6805.9 7555.53 6692.09 7479.65 6616.21 7365.83Z" fill="black"/>
</svg>
