<svg width="10937" height="10163" viewBox="0 0 10937 10163" fill="none" xmlns="http://www.w3.org/2000/svg">
<path d="M5750.43 7372.61C5572.25 7203.8 5364.36 7074.07 5137.33 6993.18L4661.38 5139.77L10329.8 3554.03L10937 5920.52L5750.43 7372.61ZM3945.9 2353.59L7724.95 1296.57L8332.58 3663.84L4553.92 4720.86L3945.9 2353.59ZM4115.49 6957.62C4009.99 6987.32 3911.9 7029.52 3816.56 7076.02L2150.36 583.416H1523.58C1460.66 720.576 1328.98 817.095 1173.45 817.095H391.151C175.061 817.095 0 633.825 0 408.352C0 182.879 175.061 0 391.151 0H1173.45C1304.75 0 1414.94 71.9013 1486.06 174.673H2689.61V194.602L2707.58 189.132L4430.84 6903.69C4325.72 6913.46 4220.61 6928.7 4115.49 6957.62ZM4216.7 7352.29C4947.03 7147.92 5697.68 7600.43 5893.45 8363.6C6089.22 9125.99 5655.87 9909.87 4925.15 10114.2C4194.82 10317.8 3444.16 9865.32 3248.39 9102.93C3052.62 8340.55 3486.37 7556.67 4216.7 7352.29ZM4010.77 8916.54C4094.39 9243.22 4416.38 9437.04 4729.38 9349.12C5042.38 9261.19 5227.99 8925.52 5144.36 8598.84C5060.74 8272.16 4738.75 8078.34 4425.76 8165.48C4112.37 8253.4 3926.75 8589.46 4010.77 8916.54ZM10888.2 7309.31L6322.51 8586.34C6314.3 8477.31 6299.06 8367.12 6270.93 8257.31C6243.18 8147.51 6202.93 8044.34 6158 7945.09L10699.8 6675.09L10888.2 7309.31Z" fill="black"/>
</svg>
