<svg width="9073" height="10057" viewBox="0 0 9073 10057" fill="none" xmlns="http://www.w3.org/2000/svg">
<path d="M5807.41 7494.54C4383.79 7195.84 4552.36 6314.81 3985.43 6131.31C3889.84 6100.37 3802.11 6086.29 3722.26 6086.29C3253.82 6086.29 3052.16 6569.94 3052.16 6950.98C3052.16 7396.82 3322.54 7717.13 3743.5 7864.93C4044.68 7970.67 4336.67 8011.24 4608.35 8011.24C5113.76 8011.24 5547.85 7870.33 5833.27 7745.26C5885.96 7722.2 5917.74 7667.7 5911.83 7610.4C5905.91 7553.13 5863.69 7506.35 5807.41 7494.54Z" fill="black"/>
<path d="M5833.25 7745.28C5547.83 7870.35 5113.74 8011.26 4608.33 8011.26C4336.65 8011.26 4044.68 7970.69 3743.48 7864.96C3322.54 7717.17 3052.14 7396.87 3052.14 6951C3052.14 6569.98 3253.8 6086.31 3722.24 6086.31C3802.09 6086.31 3889.82 6100.38 3985.41 6131.33C4552.34 6314.83 4383.79 7195.86 5807.39 7494.56C5863.67 7506.37 5905.91 7553.16 5911.81 7610.44C5917.72 7667.72 5885.96 7722.22 5833.25 7745.28ZM2998.48 1202.7C3162.81 1202.7 3319.26 1232 3470.51 1273.39C3793.26 1361.8 4080.02 1533.3 4303.89 1769.65C4539.91 2019.25 4704.9 2334.33 4768.09 2686.23C4786.72 2789.97 4800.17 2895.56 4800.17 3004.57C4800.17 3307.37 4718 3588.73 4585.43 3839.45C4586.74 3839.94 4588.38 3840.74 4589.35 3841.26C4884.91 3966.96 5226.03 3829.28 5351.73 3533.88C5463.32 3271.82 5366.45 2973.96 5136.66 2822.39C5140.27 2820.75 5145.8 2818.97 5149.43 2817.49C5488.89 2672.48 5646 2279.83 5500.96 1940.85C5405.07 1716.8 5200.48 1574.76 4975.24 1544.1C4980.51 1534.94 4987.38 1523.66 4991.64 1515.3C5183.42 1142.11 5035.81 684.336 4662.64 492.844C4347.42 330.977 3973.62 413.13 3748.73 666.971C3702.57 288.906 3382.43 -3.25303 2992.56 0.0273535C2572.91 3.49226 2235.73 346.19 2239.03 765.874C2239.99 881.405 2268.47 1093.69 2316.59 1338.71C2527.09 1252.15 2756.9 1202.7 2998.48 1202.7ZM9062.48 6233.29C9055.61 6151.14 9011.1 6076.65 8942.36 6031.16C8873.59 5985.81 8787.87 5974.22 8709.3 5999.89C5983.53 6893.06 4834.53 5290.88 4374.64 4153.51C4320.95 4020.61 4275.76 3893.76 4239.41 3778.23C4380.2 3553.18 4464.98 3289.52 4464.98 3004.55C4464.98 2194.54 3808.33 1537.89 2998.48 1537.89C2445.94 1537.89 1970.61 1846.9 1720.87 2298.16L1305.47 2410.6L557.505 2613.39C495.301 2630.24 447.202 2679.02 431.149 2741.04C414.788 2803.24 433.117 2869.38 479.289 2914.2L1205.67 3623.23C782.417 3862.37 363.061 4170.22 218.068 4317.71C-76.2446 4616.86 -72.0006 5097.75 226.884 5391.85C394.183 5556.53 792.094 5783.96 1140.84 5418.71C1452.23 5092.58 1951.65 4294.79 2176.87 3745.04C2223.37 3632.07 2259.04 3529.31 2278.66 3444.02C2304.88 3329.78 2303.88 3245.83 2265.6 3208.18C2199.46 3143.35 2198.78 3037.13 2263.61 2971.2C2328.75 2904.89 2434.5 2904.56 2500.6 2969.23C2613.57 3080.21 2632.21 3259.91 2595.53 3472.36C2462.32 4245.36 1547.67 5449.85 1375.47 5624.97C1202.63 5800.57 988.281 5929.41 761.115 5961.78C734.605 6125.45 718.88 6292.26 718.88 6462.3C718.88 8447.16 2588.99 10056 4895.75 10056C7202.56 10056 9072.67 8447.16 9072.67 6462.3C9072.65 6385.17 9069.04 6308.91 9062.48 6233.29ZM2456.38 2418.31C2456.38 2289.65 2560.47 2185.38 2689.12 2185.38C2817.77 2185.38 2922.19 2289.65 2922.19 2418.31C2922.19 2546.8 2817.77 2651.05 2689.12 2651.05C2560.47 2651.03 2456.38 2546.78 2456.38 2418.31ZM5967.8 8052.35C5661.42 8186.56 5176.94 8346.46 4608.33 8346.46C4273.14 8346.46 3944.81 8290.81 3632.54 8181.14C3059.35 7979.97 2716.94 7520.11 2716.94 6951C2716.94 6369.49 3069.17 5751.28 3722.24 5751.12C3839.74 5751.12 3962.79 5771.76 4088.49 5812.32C4414.87 5918.07 4575.9 6165.55 4718 6383.86C4918.02 6691.05 5124.56 7008.76 5876.1 7166.38C6076.12 7208.28 6224.39 7372.92 6245.37 7576.22C6265.99 7779.17 6154.7 7970.5 5967.8 8052.35Z" fill="black"/>
</svg>
