<svg width="8544" height="9872" viewBox="0 0 8544 9872" fill="none" xmlns="http://www.w3.org/2000/svg">
<path d="M781.322 7848.7C840.342 6258.69 1584.75 4667.3 2839.54 3498.24C3594.92 2794.3 4473.28 2284.54 5450.14 1983.31C5464.37 1978.83 5478.72 1975.6 5493.1 1971.41C5479.66 1932.79 5468.69 1892.94 5454.02 1855.09C5141.81 1042.25 4558.07 412.31 3832.5 0C3027.99 249.634 2289.91 690.5 1668.45 1303.91C1048.41 1917.02 548.212 2700.36 257.335 3614.39C-33.0796 4528.11 -71.0829 5442.9 110.72 6278.77C235.566 6847.23 460.771 7381.71 781.322 7848.7Z" fill="black"/>
<path d="M8215.09 2202.81C7346.8 2092.05 6450.84 2173 5589.95 2436.53C4728.75 2702.38 3896.59 3161.8 3163 3845.49C1815.22 5101.36 1150.19 6803.99 1264.2 8402.79C1073.9 8547.38 881.565 8690.43 683.527 8831.6C483.484 8972.03 286.063 9113.38 39.6875 9252.71L390.818 9872C682.621 9706.1 886.674 9558.26 1096.45 9411.35C1303 9264.14 1500.24 9117.39 1694.89 8969.39C3220.01 9496.46 5200.06 9081.99 6722.4 7663.62C7548.21 6894.8 8117.16 5937.04 8378.98 4959.85C8643.15 3983.58 8590.77 2992.33 8215.09 2202.81ZM7179.19 3622.75C6794.06 4185.19 6211.4 4856.21 5584.24 5518.6C6141.43 5427.31 6586.79 5344.34 6800.12 5303.42C6889.87 5286.28 6938.36 5276.53 6938.52 5276.53C7024.24 5259.39 7107.52 5314.99 7124.66 5400.58C7141.8 5486.33 7086.19 5569.58 7000.6 5586.72C6999.06 5587.03 6229.62 5740.74 5220.91 5897.05C5109.69 6011.06 4998 6124.13 4886.63 6235.5C4547.08 6574.89 4211.59 6898.5 3901.55 7189.23C4664.2 7070.74 5444.9 6912.12 5825.84 6831.46C5977.23 6799.49 6064.98 6780.02 6065.27 6779.87C6150.53 6761.03 6235.02 6814.76 6254.03 6900.05C6272.87 6985.33 6219.14 7069.8 6133.85 7088.81C6131.52 7089.12 4706.81 7406.1 3510.41 7565.67L3491.73 7568.14C3178.75 7853.16 2910.9 8086.58 2719.65 8243.04V8243.2C2652.16 8298.5 2552.36 8288.45 2497.06 8220.79C2441.77 8153.31 2451.81 8053.51 2519.47 7998.21C2718.89 7835.07 3010.54 7580.04 3352.09 7267.08C3361.83 7198.5 3372.49 7111.99 3383.6 7011.12C3402.28 6841.8 3422.2 6636.07 3441.83 6419.94C3481.24 5987.89 3519.07 5514.73 3543.17 5205.46C3559.23 4999.4 3569.12 4866.53 3569.12 4866.24C3575.6 4779.11 3651.45 4713.76 3738.58 4720.26C3825.72 4726.61 3891.06 4802.59 3884.58 4889.72C3884.58 4890.34 3795.6 6091.39 3717.43 6862.52C3714.81 6888.32 3712.34 6910.88 3709.72 6935.43C4010.49 6652.9 4335.51 6339.33 4662.98 6011.84C4778.52 5896.28 4894.22 5779.03 5009.62 5660.86C5056.9 5471.79 5091.49 5170.27 5112.2 4868.09C5135.22 4541.06 5144.32 4210.5 5148.04 3999.03C5150.51 3858.14 5150.51 3770.87 5150.51 3770.7C5150.51 3683.28 5221.25 3612.52 5308.69 3612.52C5396.13 3612.52 5466.88 3683.28 5466.88 3770.7C5466.72 3773.48 5467.19 4575.52 5399.22 5222C5397.83 5234.51 5396.27 5246.41 5394.88 5258.75C6000.58 4616.45 6558.23 3970.74 6918.16 3444.13C6967.44 3372 7065.83 3353.63 7137.98 3402.89C7210.08 3452.19 7228.45 3550.6 7179.19 3622.75Z" fill="black"/>
</svg>
