<svg width="1820" height="649" viewBox="0 0 1820 649" fill="none" xmlns="http://www.w3.org/2000/svg">
<path d="M88.3305 3.46796L84.8639 6.93457L85.6639 37.2013C86.1972 53.7346 87.3972 85.6013 88.4639 108.001C89.5305 130.401 90.7305 160.268 91.1305 174.535L91.7972 200.268L88.8639 199.335C66.1972 192.268 53.9305 193.868 36.4639 206.135C22.7305 215.868 9.66385 234.535 3.26385 254.001C0.0638499 263.335 -0.33615 266.268 0.197183 278.001C0.730517 292.801 3.93052 302.135 11.6639 310.801C28.7305 330.268 66.0639 328.801 89.9305 307.601L96.4639 301.735L100.064 307.335C104.464 314.135 113.531 320.668 123.664 324.268C129.397 326.268 133.797 326.801 141.931 326.401C151.264 326.001 154.197 325.335 162.864 320.935C171.531 316.668 175.264 313.735 186.597 301.601C195.664 292.001 201.397 284.535 204.331 278.668C208.197 270.801 208.597 268.935 208.597 257.735V245.468L213.931 246.401C216.864 246.935 221.264 247.201 223.664 247.201C227.131 247.201 227.931 247.601 227.264 249.201C225.264 254.135 222.597 269.201 222.597 275.335C222.597 308.401 239.931 338.135 264.464 346.668C278.997 351.868 302.464 349.601 318.464 341.601C327.797 336.935 343.131 322.535 352.997 309.335L360.731 299.068L367.131 304.668C383.931 319.601 403.931 324.535 419.931 317.868C431.131 313.201 440.597 298.268 442.331 282.268L443.397 274.001L449.931 286.401C459.664 304.535 465.797 312.801 472.997 316.935C478.331 320.135 480.731 320.668 489.264 320.668C504.197 320.668 513.664 315.601 530.597 298.535C543.264 285.735 545.931 284.135 551.264 286.135C553.531 287.068 557.664 294.535 558.997 300.001C559.397 301.868 560.997 314.801 562.597 328.935C566.864 368.135 571.397 382.268 583.397 393.335C590.597 400.001 601.131 403.201 612.464 402.401C632.597 400.668 652.197 382.668 658.731 360.001C661.131 351.601 662.064 350.935 663.131 357.335C666.197 376.801 681.931 388.268 705.931 388.535C719.664 388.668 726.064 386.935 732.731 380.935C741.664 373.201 744.197 365.335 747.264 336.801C750.597 303.601 751.797 301.735 772.064 297.201C779.397 295.601 786.997 293.201 789.131 291.868C791.131 290.668 796.997 283.335 801.931 275.735C819.931 248.268 829.531 238.935 843.264 236.001C852.864 233.868 855.664 235.068 858.997 242.401C861.797 248.268 861.931 250.535 861.931 281.468C861.931 317.068 861.931 316.801 869.664 320.935C872.464 322.268 876.064 322.801 881.664 322.401C888.864 321.868 890.064 321.335 894.597 316.535C897.797 313.068 900.731 307.735 903.131 300.668C909.264 283.468 913.264 275.868 920.464 268.535C928.731 260.001 935.264 257.601 943.797 260.001C952.064 262.135 959.397 269.735 973.397 290.135C992.864 318.668 1003.13 325.868 1024.6 325.868C1035.26 325.868 1037.53 325.468 1045.53 321.735C1050.46 319.335 1057.53 314.668 1061.13 311.335C1068.86 304.135 1083.4 283.335 1086.73 274.668C1088.06 271.335 1089.13 269.201 1089.26 270.001C1089.26 270.668 1089.93 277.868 1090.6 286.001C1093.93 324.668 1099.66 424.935 1106.6 565.335C1109.66 576.935 1112.86 632.401 1113.93 638.935C1115.13 645.868 1120.06 648.668 1130.73 648.668C1138.33 648.668 1140.33 648.135 1143.53 645.468L1147.26 642.268L1147 605.735C1146.33 536.135 1142.2 513.468 1131.26 382.668C1127 330.801 1119.93 238.401 1119.93 233.335C1119.93 228.401 1123.13 228.001 1131.53 232.135C1139.13 235.868 1144.33 242.535 1155.8 263.201C1170.46 289.868 1177.13 297.335 1192.06 303.868C1200.46 307.601 1214.73 308.668 1223.53 306.268L1230.6 304.401L1235.66 311.201C1245.13 323.601 1256.2 329.201 1273.4 330.401C1289.53 331.335 1302.6 326.668 1316.86 314.935L1324.73 308.401L1333 316.001C1349.26 331.068 1369.8 338.668 1393.8 338.668C1426.06 338.668 1460.06 327.201 1480.2 309.468C1483.53 306.401 1487 304.001 1487.66 304.001C1488.46 304.001 1490.33 305.601 1491.8 307.468C1496.46 313.468 1510.2 323.601 1519.26 328.001C1534.2 335.068 1547.8 337.868 1563.93 336.935C1589.4 335.468 1609.66 327.468 1637.8 307.601C1638.73 306.935 1642.6 309.735 1648.2 315.201C1659 325.468 1673.8 333.468 1688.73 336.801C1696.86 338.535 1702.73 338.935 1716.46 338.268C1750.86 336.801 1775.93 327.068 1801 305.335C1814.33 293.868 1819.93 286.401 1819.93 279.868C1819.93 269.468 1814.46 264.001 1804.06 264.001C1799.66 264.001 1797.4 265.068 1791.4 269.868C1752.06 302.001 1731.93 310.668 1704.6 306.935C1690.06 305.068 1678.86 300.135 1671.93 292.535C1669 289.335 1666.6 286.268 1666.6 285.601C1666.6 284.935 1672.73 280.401 1680.33 275.335C1699.66 262.268 1715.4 246.268 1722.06 232.801C1726.86 222.935 1727.26 221.335 1727.66 208.668C1728.6 186.268 1722.86 173.601 1708.73 166.401C1697 160.401 1673.8 162.268 1659.93 170.268C1646.33 178.268 1634.06 195.468 1628.06 215.068C1623.8 228.935 1621.93 250.668 1623.66 264.135L1625.26 275.335L1616.46 283.735C1601.13 298.535 1588.86 304.268 1568.86 306.135C1541.53 308.535 1517.13 295.868 1507.13 274.001C1500.33 259.335 1501.53 236.801 1509.8 221.868C1519.26 204.668 1537.53 198.135 1550.73 207.068C1557.26 211.468 1560.2 218.535 1562.06 234.535C1563 242.268 1563.8 248.801 1563.8 249.068C1564.33 250.668 1573.53 254.668 1577 254.668C1591.26 254.668 1596.33 241.868 1591.26 218.401C1587.13 198.935 1575.8 182.935 1561.26 176.135C1555.13 173.335 1551.93 172.668 1542.6 172.801C1507.4 172.801 1483.4 191.735 1474.46 226.268C1471.8 236.935 1470.73 259.335 1472.46 267.601C1473.4 271.735 1473 272.135 1459 282.668C1431.66 303.335 1411.93 310.135 1388.6 306.935C1374.06 305.068 1362.86 300.135 1355.93 292.535C1353 289.335 1350.6 286.268 1350.6 285.601C1350.6 284.935 1356.73 280.401 1364.33 275.335C1383.53 262.268 1399.26 246.268 1405.93 232.668C1410.86 222.801 1411.26 221.068 1411.66 208.535C1412.33 191.601 1409.93 182.268 1403 174.535C1395.66 166.535 1389.13 163.601 1376.33 162.935C1344.6 161.201 1320.46 182.401 1310.6 220.668C1307.53 232.268 1306.46 257.335 1308.33 270.668L1309.4 278.135L1301.26 286.268C1291.8 295.735 1285.53 299.068 1277.8 299.068C1267.13 299.068 1257.26 289.468 1251.8 273.601C1250.33 269.468 1247.66 257.601 1245.93 247.335C1244.06 237.068 1241.93 226.935 1241.13 224.935C1239.13 220.268 1233.66 217.335 1226.46 217.335C1222.06 217.335 1220.2 218.135 1216.46 221.868C1210.73 227.601 1210.73 230.935 1215.4 254.801C1217.26 264.401 1218.46 273.201 1218.06 274.135C1217.13 276.668 1206.2 276.535 1201.4 274.135C1195.93 271.335 1189 262.935 1183.26 252.535C1164.33 218.268 1156.86 208.535 1143.8 201.868C1138.2 199.068 1134.2 198.135 1125.66 197.601C1115 197.068 1114.73 196.935 1113.93 193.335C1112.46 186.801 1107.4 183.468 1099.26 183.468C1085.66 183.735 1080.86 190.001 1081 207.868C1081.13 223.201 1079.13 228.268 1062.2 255.468C1041.8 288.135 1035.53 294.668 1023.93 294.668C1016.73 294.668 1009.93 288.401 997.131 269.601C977.797 241.601 963.797 230.268 945.931 228.535C931.797 227.068 914.731 231.868 900.197 241.335L892.197 246.401L890.064 236.935C887.531 225.601 881.664 214.801 875.931 210.668C870.597 206.801 861.131 204.001 853.797 204.001C844.064 204.001 828.197 207.735 818.864 212.268C807.131 217.868 791.131 233.868 780.197 250.668C775.664 257.601 771.397 264.001 770.731 264.801C770.064 265.601 762.464 267.868 753.797 269.868C730.064 275.468 721.797 280.935 719.397 292.668C718.997 294.801 718.064 306.001 717.264 317.335C715.264 348.268 712.597 358.535 706.064 361.468C701.397 363.601 697.931 361.068 693.797 352.401C688.864 341.868 681.664 312.668 679.931 295.201C677.264 271.068 674.864 258.401 672.197 254.801C664.064 243.735 649.531 247.868 645.264 262.535C644.464 265.201 643.264 275.735 642.464 286.001C639.531 329.335 630.597 359.201 617.531 369.335C613.531 372.535 605.664 372.801 601.531 369.868C594.464 364.935 591.931 356.001 587.931 321.468C584.597 292.935 582.464 283.201 576.997 272.935C568.997 258.001 556.331 252.668 537.664 256.535C526.864 258.668 519.531 262.668 514.731 268.935C513.131 270.935 509.397 275.868 506.597 279.601C489.797 301.601 479.531 293.735 459.664 244.001C446.331 210.668 433.397 193.468 414.997 184.401C405.797 179.868 404.064 179.468 393.397 179.468C383.264 179.335 380.864 179.868 372.997 183.601C343.797 197.335 329.797 229.068 338.597 261.201L341.397 270.935L333.664 281.735C323.131 296.535 308.731 310.801 300.597 314.668C291.397 318.935 278.064 319.735 271.264 316.668C260.731 311.601 254.064 296.535 254.197 278.001C254.197 266.135 256.731 257.335 265.397 239.201C271.397 226.401 271.797 222.935 267.664 218.935C260.997 212.801 250.864 211.735 239.931 216.001C226.197 221.335 220.864 219.468 203.264 202.801C188.997 189.201 182.064 186.935 171.131 191.868C164.731 194.801 159.931 199.468 159.931 202.935C159.931 204.135 162.597 208.268 165.931 212.001C173.397 220.401 176.464 229.868 176.464 245.335C176.597 263.068 175.797 265.335 163.931 278.668C151.931 292.001 146.331 296.001 139.664 296.001C133.531 296.001 128.864 292.135 125.931 285.068C123.797 279.868 123.531 272.268 123.264 207.335C122.997 139.068 121.931 104.401 118.064 36.1346L116.331 6.13458L112.731 3.06793C109.797 0.534607 107.531 0.00128174 100.464 0.00128174C92.8639 0.00128174 91.3972 0.401306 88.3305 3.46796ZM1377.93 196.668C1385.8 204.401 1379.13 224.268 1363 240.535C1357 246.668 1343.8 257.335 1342.33 257.335C1341.93 257.335 1341.26 254.935 1340.73 252.135C1339.66 245.201 1341.93 229.335 1345.4 219.201C1352.46 198.935 1369 187.601 1377.93 196.668ZM1694.2 196.801C1697.13 199.735 1697.53 201.068 1697 207.335C1695.8 221.468 1685 237.468 1666.86 251.735C1662.86 254.801 1659.26 257.335 1658.6 257.335C1655 257.335 1656.73 232.535 1661.4 219.201C1668.6 198.801 1685 187.601 1694.2 196.801ZM406.997 212.668C411.664 216.135 416.864 226.668 418.731 236.668C419.531 241.068 419.931 251.201 419.664 259.335C419.131 275.201 416.464 282.935 410.331 287.201C397.131 296.535 372.064 273.868 367.931 249.068C365.531 234.268 371.797 218.801 383.131 211.868C388.597 208.401 401.664 208.801 406.997 212.668ZM85.3972 229.068C92.0639 236.401 93.9305 252.268 89.7972 264.401C86.9972 272.535 77.2639 283.201 68.8639 287.468C55.2639 294.401 38.7305 292.535 33.1305 283.468C26.5972 272.801 32.0639 253.468 45.3972 239.335C59.6639 224.268 77.1305 219.868 85.3972 229.068Z" fill="black"/>
<path d="M1225.26 124.267C1217.53 128.267 1213.26 134.667 1213.26 142.267C1213.26 154.133 1219.66 160 1232.2 160C1242.73 159.867 1250.06 156.133 1253.26 149.067C1256.6 141.6 1256.6 137.867 1252.86 131.467C1247.26 121.6 1236.2 118.8 1225.26 124.267Z" fill="black"/>
</svg>
