<svg width="1084" height="185" viewBox="0 0 1084 185" fill="none" xmlns="http://www.w3.org/2000/svg">
<mask id="path-1-outside-1_534_187" maskUnits="userSpaceOnUse" x="0.110352" y="0.320312" width="1084" height="185" fill="black">
<rect fill="white" x="0.110352" y="0.320312" width="1084" height="185"/>
<path d="M70.0404 3.32031V129.226H107.87V143H3.11035V129.226H52.9684V16.9973H14.7504V3.32031H70.0404Z"/>
<path d="M209.751 44.1573V129.226H247.581V143H142.821V129.226H192.679V57.8343H154.461V44.1573H209.751ZM190.157 27.2793V8.55831H209.945V27.2793H190.157Z"/>
<path d="M287.478 44.1573H304.065V57.1553H305.617C312.698 46.0973 324.92 41.9263 339.276 41.9263C362.556 41.9263 377.3 53.6633 377.3 78.0103V143H360.228V79.6593C360.228 63.3633 351.207 56.1853 335.493 56.1853C318.227 56.1853 304.55 66.2733 304.55 88.0983V143H287.478V44.1573Z"/>
<path d="M422.629 93.5303C422.629 60.3563 441.835 41.8293 472.487 41.8293C503.139 41.8293 519.823 60.5503 519.823 89.2623V97.6043H439.216C439.507 118.265 451.923 131.748 472.39 131.748C491.984 131.748 500.908 121.175 502.46 112.057H517.689V114.967C515.264 127.189 503.624 145.328 472.584 145.328C441.932 145.328 422.629 126.801 422.629 93.5303ZM439.41 84.4123H503.43C503.236 67.7283 492.857 55.3123 472.293 55.3123C452.117 55.3123 440.768 67.8253 439.41 84.4123Z"/>
<path d="M565.735 181.8V44.1573H582.322V57.7373H583.874C591.246 46.3883 603.177 41.9263 617.145 41.9263C642.85 41.9263 662.444 59.3863 662.444 93.6273C662.444 127.771 642.85 145.231 617.145 145.231C603.468 145.231 591.731 140.963 584.359 130.002H582.807V181.8H565.735ZM582.128 93.6273C582.128 117.586 594.932 131.069 613.653 131.069C632.471 131.069 645.178 117.586 645.178 93.6273C645.178 69.5713 632.471 56.0883 613.653 56.0883C594.932 56.0883 582.128 69.5713 582.128 93.6273Z"/>
<path d="M768.592 3.32031V129.226H806.422V143H701.662V129.226H751.52V16.9973H713.302V3.32031H768.592Z"/>
<path d="M846.416 71.6083C848.453 53.2753 864.458 41.8293 890.357 41.8293C916.159 41.8293 931.485 53.2753 931.485 77.9133V143H915.577V129.42H914.025C909.757 136.889 899.766 145.134 878.62 145.134C856.698 145.134 841.663 134.367 841.663 115.937C841.663 96.3433 856.698 87.7103 877.165 85.1883L914.995 80.5323V76.9433C914.995 61.5203 906.459 55.4093 889.969 55.4093C873.576 55.4093 863.779 61.5203 862.421 74.5183H846.416V71.6083ZM858.638 115.161C858.638 125.443 867.562 131.36 881.433 131.36C899.766 131.36 914.995 121.66 914.995 99.8353V93.7243L880.463 98.1863C867.077 99.9323 858.638 104.782 858.638 115.161Z"/>
<path d="M979.822 44.1573H997.281L1029.49 122.63H1031.04L1063.24 44.1573H1080.12V47.0673L1022.11 181.8H1005.14V178.89L1021.05 142.709L979.822 47.0673V44.1573Z"/>
</mask>
<path d="M70.0404 3.32031V129.226H107.87V143H3.11035V129.226H52.9684V16.9973H14.7504V3.32031H70.0404Z" fill="black"/>
<path d="M209.751 44.1573V129.226H247.581V143H142.821V129.226H192.679V57.8343H154.461V44.1573H209.751ZM190.157 27.2793V8.55831H209.945V27.2793H190.157Z" fill="black"/>
<path d="M287.478 44.1573H304.065V57.1553H305.617C312.698 46.0973 324.92 41.9263 339.276 41.9263C362.556 41.9263 377.3 53.6633 377.3 78.0103V143H360.228V79.6593C360.228 63.3633 351.207 56.1853 335.493 56.1853C318.227 56.1853 304.55 66.2733 304.55 88.0983V143H287.478V44.1573Z" fill="black"/>
<path d="M422.629 93.5303C422.629 60.3563 441.835 41.8293 472.487 41.8293C503.139 41.8293 519.823 60.5503 519.823 89.2623V97.6043H439.216C439.507 118.265 451.923 131.748 472.39 131.748C491.984 131.748 500.908 121.175 502.46 112.057H517.689V114.967C515.264 127.189 503.624 145.328 472.584 145.328C441.932 145.328 422.629 126.801 422.629 93.5303ZM439.41 84.4123H503.43C503.236 67.7283 492.857 55.3123 472.293 55.3123C452.117 55.3123 440.768 67.8253 439.41 84.4123Z" fill="black"/>
<path d="M565.735 181.8V44.1573H582.322V57.7373H583.874C591.246 46.3883 603.177 41.9263 617.145 41.9263C642.85 41.9263 662.444 59.3863 662.444 93.6273C662.444 127.771 642.85 145.231 617.145 145.231C603.468 145.231 591.731 140.963 584.359 130.002H582.807V181.8H565.735ZM582.128 93.6273C582.128 117.586 594.932 131.069 613.653 131.069C632.471 131.069 645.178 117.586 645.178 93.6273C645.178 69.5713 632.471 56.0883 613.653 56.0883C594.932 56.0883 582.128 69.5713 582.128 93.6273Z" fill="black"/>
<path d="M768.592 3.32031V129.226H806.422V143H701.662V129.226H751.52V16.9973H713.302V3.32031H768.592Z" fill="black"/>
<path d="M846.416 71.6083C848.453 53.2753 864.458 41.8293 890.357 41.8293C916.159 41.8293 931.485 53.2753 931.485 77.9133V143H915.577V129.42H914.025C909.757 136.889 899.766 145.134 878.62 145.134C856.698 145.134 841.663 134.367 841.663 115.937C841.663 96.3433 856.698 87.7103 877.165 85.1883L914.995 80.5323V76.9433C914.995 61.5203 906.459 55.4093 889.969 55.4093C873.576 55.4093 863.779 61.5203 862.421 74.5183H846.416V71.6083ZM858.638 115.161C858.638 125.443 867.562 131.36 881.433 131.36C899.766 131.36 914.995 121.66 914.995 99.8353V93.7243L880.463 98.1863C867.077 99.9323 858.638 104.782 858.638 115.161Z" fill="black"/>
<path d="M979.822 44.1573H997.281L1029.49 122.63H1031.04L1063.24 44.1573H1080.12V47.0673L1022.11 181.8H1005.14V178.89L1021.05 142.709L979.822 47.0673V44.1573Z" fill="black"/>
<path d="M70.0404 3.32031V129.226H107.87V143H3.11035V129.226H52.9684V16.9973H14.7504V3.32031H70.0404Z" stroke="black" stroke-width="6" mask="url(#path-1-outside-1_534_187)"/>
<path d="M209.751 44.1573V129.226H247.581V143H142.821V129.226H192.679V57.8343H154.461V44.1573H209.751ZM190.157 27.2793V8.55831H209.945V27.2793H190.157Z" stroke="black" stroke-width="6" mask="url(#path-1-outside-1_534_187)"/>
<path d="M287.478 44.1573H304.065V57.1553H305.617C312.698 46.0973 324.92 41.9263 339.276 41.9263C362.556 41.9263 377.3 53.6633 377.3 78.0103V143H360.228V79.6593C360.228 63.3633 351.207 56.1853 335.493 56.1853C318.227 56.1853 304.55 66.2733 304.55 88.0983V143H287.478V44.1573Z" stroke="black" stroke-width="6" mask="url(#path-1-outside-1_534_187)"/>
<path d="M422.629 93.5303C422.629 60.3563 441.835 41.8293 472.487 41.8293C503.139 41.8293 519.823 60.5503 519.823 89.2623V97.6043H439.216C439.507 118.265 451.923 131.748 472.39 131.748C491.984 131.748 500.908 121.175 502.46 112.057H517.689V114.967C515.264 127.189 503.624 145.328 472.584 145.328C441.932 145.328 422.629 126.801 422.629 93.5303ZM439.41 84.4123H503.43C503.236 67.7283 492.857 55.3123 472.293 55.3123C452.117 55.3123 440.768 67.8253 439.41 84.4123Z" stroke="black" stroke-width="6" mask="url(#path-1-outside-1_534_187)"/>
<path d="M565.735 181.8V44.1573H582.322V57.7373H583.874C591.246 46.3883 603.177 41.9263 617.145 41.9263C642.85 41.9263 662.444 59.3863 662.444 93.6273C662.444 127.771 642.85 145.231 617.145 145.231C603.468 145.231 591.731 140.963 584.359 130.002H582.807V181.8H565.735ZM582.128 93.6273C582.128 117.586 594.932 131.069 613.653 131.069C632.471 131.069 645.178 117.586 645.178 93.6273C645.178 69.5713 632.471 56.0883 613.653 56.0883C594.932 56.0883 582.128 69.5713 582.128 93.6273Z" stroke="black" stroke-width="6" mask="url(#path-1-outside-1_534_187)"/>
<path d="M768.592 3.32031V129.226H806.422V143H701.662V129.226H751.52V16.9973H713.302V3.32031H768.592Z" stroke="black" stroke-width="6" mask="url(#path-1-outside-1_534_187)"/>
<path d="M846.416 71.6083C848.453 53.2753 864.458 41.8293 890.357 41.8293C916.159 41.8293 931.485 53.2753 931.485 77.9133V143H915.577V129.42H914.025C909.757 136.889 899.766 145.134 878.62 145.134C856.698 145.134 841.663 134.367 841.663 115.937C841.663 96.3433 856.698 87.7103 877.165 85.1883L914.995 80.5323V76.9433C914.995 61.5203 906.459 55.4093 889.969 55.4093C873.576 55.4093 863.779 61.5203 862.421 74.5183H846.416V71.6083ZM858.638 115.161C858.638 125.443 867.562 131.36 881.433 131.36C899.766 131.36 914.995 121.66 914.995 99.8353V93.7243L880.463 98.1863C867.077 99.9323 858.638 104.782 858.638 115.161Z" stroke="black" stroke-width="6" mask="url(#path-1-outside-1_534_187)"/>
<path d="M979.822 44.1573H997.281L1029.49 122.63H1031.04L1063.24 44.1573H1080.12V47.0673L1022.11 181.8H1005.14V178.89L1021.05 142.709L979.822 47.0673V44.1573Z" stroke="black" stroke-width="6" mask="url(#path-1-outside-1_534_187)"/>
</svg>
