<svg width="948" height="207" viewBox="0 0 948 207" fill="none" xmlns="http://www.w3.org/2000/svg">
<path d="M0 202.097V5.1027H51.9237L104.976 124.144C111.749 139.622 114.006 149.753 114.006 167.201V171.985H122.754V167.482C122.754 150.597 125.012 140.185 132.067 124.425L186.53 5.1027H235.632V202.097H199.511V41.406H190.481V56.8841C190.481 73.7694 188.223 84.1819 180.886 99.9415L133.76 202.097H101.872L54.7456 100.223C47.4086 84.7448 45.1511 74.6136 45.1511 57.1655V41.406H36.1208V202.097H0Z" fill="#090909"/>
<path d="M358.223 206.6C304.889 206.6 270.743 184.649 270.743 150.597C270.743 123.018 293.883 105.007 329.157 104.726V96.5644C296.987 96.8459 276.387 79.6792 276.387 53.5071C276.387 21.1437 308.557 0.599976 358.223 0.599976C408.172 0.599976 440.342 21.1437 440.342 53.5071C440.342 79.3978 419.177 96.5644 387.289 96.5644V104.726C422.564 105.007 445.986 123.018 445.986 150.597C445.986 184.649 412.122 206.6 358.223 206.6ZM358.223 180.991C386.161 180.991 404.785 168.327 404.785 148.064C404.785 127.802 386.161 114.294 358.223 114.294C330.568 114.294 311.943 127.802 311.943 148.064C311.943 168.327 330.568 180.991 358.223 180.991ZM358.223 88.6847C384.467 88.6847 401.963 75.7393 401.963 56.6027C401.963 38.0289 384.467 25.9278 358.223 25.9278C331.979 25.9278 314.765 38.0289 314.765 56.6027C314.765 75.7393 332.261 88.6847 358.223 88.6847Z" fill="#090909"/>
<path d="M481.846 5.1027H519.943V202.097H481.846V5.1027Z" fill="#090909"/>
<path d="M621.872 80.5235C612.842 66.171 609.738 56.3213 609.738 38.8732V37.1847H600.707V202.097H564.587V5.1027H615.099L692.703 126.395C701.733 140.748 704.837 150.597 704.837 168.045V170.015H713.867V4.82128H749.988V202.097H699.475L621.872 80.5235Z" fill="#090909"/>
<path d="M865.882 206.319C822.424 206.319 791.1 183.805 780.377 146.657L813.676 121.892C816.78 157.633 838.791 175.925 866.446 175.925C891.843 175.925 909.622 160.166 909.622 137.652C909.622 117.108 893.537 101.349 870.961 101.349C861.084 101.349 854.312 104.726 848.386 109.791L826.939 86.9961L858.827 59.1355C871.525 47.8787 880.838 44.2202 898.334 44.2202H905.953V35.4962H786.585V5.1027H945.46V29.0235L888.175 75.1765C926.271 77.7093 948 104.163 948 137.652C948 179.302 913.572 206.319 865.882 206.319Z" fill="#090909"/>
</svg>
