<svg width="948" height="208" viewBox="0 0 948 208" fill="none" xmlns="http://www.w3.org/2000/svg">
<path d="M0 203.075V5.12456H51.9237L104.976 124.743C111.749 140.297 114.006 150.477 114.006 168.01V172.817H122.754V168.293C122.754 151.325 125.012 140.862 132.067 125.026L186.53 5.12456H235.632V203.075H199.511V41.6041H190.481V57.1573C190.481 74.1246 188.223 84.5877 180.886 100.424L133.76 203.075H101.872L54.7456 100.707C47.4086 85.1533 45.1511 74.9729 45.1511 57.4401V41.6041H36.1208V203.075H0Z" fill="white"/>
<path d="M358.223 207.6C304.889 207.6 270.743 185.543 270.743 151.325C270.743 123.612 293.883 105.514 329.157 105.231V97.0303C296.987 97.3131 276.387 80.0631 276.387 53.7639C276.387 21.2434 308.557 0.599976 358.223 0.599976C408.172 0.599976 440.342 21.2434 440.342 53.7639C440.342 79.7803 419.177 97.0303 387.289 97.0303V105.231C422.564 105.514 445.986 123.612 445.986 151.325C445.986 185.543 412.122 207.6 358.223 207.6ZM358.223 181.866C386.161 181.866 404.785 169.141 404.785 148.78C404.785 128.42 386.161 114.846 358.223 114.846C330.568 114.846 311.943 128.42 311.943 148.78C311.943 169.141 330.568 181.866 358.223 181.866ZM358.223 89.1123C384.467 89.1123 401.963 76.1041 401.963 56.8746C401.963 38.2106 384.467 26.0508 358.223 26.0508C331.979 26.0508 314.765 38.2106 314.765 56.8746C314.765 76.1041 332.261 89.1123 358.223 89.1123Z" fill="white"/>
<path d="M481.846 5.12456H519.943V203.075H481.846V5.12456Z" fill="white"/>
<path d="M621.872 80.9115C612.842 66.4893 609.738 56.5918 609.738 39.059V37.3623H600.707V203.075H564.587V5.12456H615.099L692.703 127.006C701.733 141.428 704.837 151.325 704.837 168.858V170.838H713.867V4.84177H749.988V203.075H699.475L621.872 80.9115Z" fill="white"/>
<path d="M865.882 207.317C822.424 207.317 791.1 184.694 780.377 147.366L813.676 122.481C816.78 158.395 838.791 176.776 866.446 176.776C891.843 176.776 909.622 160.94 909.622 138.317C909.622 117.674 893.537 101.838 870.961 101.838C861.084 101.838 854.312 105.231 848.386 110.321L826.939 87.4155L858.827 59.4196C871.525 48.1082 880.838 44.4319 898.334 44.4319H905.953V35.6656H786.585V5.12456H945.46V29.1615L888.175 75.5385C926.271 78.0836 948 104.666 948 138.317C948 180.17 913.572 207.317 865.882 207.317Z" fill="white"/>
</svg>
